<svg xmlns="http://www.w3.org/2000/svg" viewBox="0 0 1017 157.01"><path d="M273.47,54.77l-3.83,19h38.13L304,92.66h-38L260,122.28H235.58l17.28-86.39h67.63l-3.83,18.88Z" style="fill:#b9e6ea"/><path d="M332.08,35.89h24.44l-17.28,86.39H314.8Z" style="fill:#b9e6ea"/><path d="M443.77,94.88c0,18.76-17.4,27.4-39.62,27.4H356.64l17.28-86.39H417.6c19.5,0,30,7.28,30,20.24,0,10.36-6,17.65-15.42,21.59C439.57,80.93,443.77,86.86,443.77,94.88Zm-24.31-.49c0-5.19-4.2-7.29-10.12-7.29h-21.6l-3.46,17.53h21.23C414,104.63,419.46,101.3,419.46,94.39ZM394.53,53.53,391.19,70.2h17.53c8.64,0,13.33-3.46,13.33-9.88,0-4.69-3.83-6.79-10.25-6.79Z" style="fill:#b9e6ea"/><path d="M516.58,96.36l14.68,25.92H505.72l-12.84-23H480.54l-4.57,23H451.54l17.28-86.39h36.9c22.09,0,34.8,10.24,34.8,27.52C540.52,79.33,531.64,91.18,516.58,96.36ZM502.26,55.14H489.43l-5.19,25.3h14.57c10.73,0,17-5.18,17-14.69C515.84,58.47,510.65,55.14,502.26,55.14Z" style="fill:#b9e6ea"/><path d="M580.38,54.77l-2.84,14.56h38.38L612.34,87.6h-38.5l-3.09,15.79H616l-3.95,18.89H542.86l17.28-86.39h67.63l-3.83,18.88Z" style="fill:#b9e6ea"/><path d="M629.37,86c0-30,22.09-51.83,54.18-51.83,15.92,0,28.88,5.8,35.05,16.29L701,64.52c-4.07-6.54-10.37-10.12-19-10.12-16.78,0-27.89,13-27.89,30,0,11.6,7.9,19.37,21.11,19.37,7.77,0,14.93-3,21.1-10L710.7,108c-9.75,11.72-22.46,16-37.89,16C646.28,124,629.37,108.58,629.37,86Z" style="fill:#fff"/><path d="M718.59,86c0-30,22.22-51.83,53.93-51.83,26.54,0,43,15.67,43,38,0,30-22.21,51.83-53.93,51.83C735,124,718.59,108.33,718.59,86Zm72.2-12.34c0-11.48-7.41-19.25-20.36-19.25-16.91,0-27.16,13.82-27.16,30.11,0,11.48,7.41,19.25,20.37,19.25C780.55,103.76,790.79,89.94,790.79,73.65Z" style="fill:#fff"/><path d="M918.64,35.89l-17.28,86.39H881.25L852.74,74.89l-9.51,47.39H819.29l17.28-86.39h20.12l28.63,47.26,9.38-47.26Z" style="fill:#fff"/><path d="M977.63,79l23.45,43.32H974.67L961.58,96.36,939,122.28H909.75l41.1-44.68L928.76,35.89h26l12.58,24.8,22-24.8H1017Z" style="fill:#fff"/><path d="M141.7,0A78.21,78.21,0,0,0,88.76,20.59h50c1-.05,1.92-.08,2.9-.08a58,58,0,0,1,0,116c-.55,0-1.09,0-1.63,0H88.79A78.49,78.49,0,1,0,141.7,0Z" style="fill:#fff"/><path d="M141.7,34.72H48.09V47.24h63a43.69,43.69,0,0,0-12.7,25H0V84.76H98.36a43.69,43.69,0,0,0,12.7,25h-63v12.52H141.7a43.79,43.79,0,0,0,0-87.57Zm0,67.25a23.47,23.47,0,1,1,23.46-23.46A23.46,23.46,0,0,1,141.7,102Z" style="fill:#b9e6ea"/></svg>