<?xml version="1.0" encoding="utf-8"?>
<svg version="1.1" xmlns:xlink="http://www.w3.org/1999/xlink" width="54px" height="44px" xmlns="http://www.w3.org/2000/svg">
  <defs>
    <linearGradient gradientUnits="userSpaceOnUse" x1="141" y1="362" x2="141" y2="406" id="LinearGradient160">
      <stop id="Stop161" stop-color="#ffff80" offset="0" />
      <stop id="Stop162" stop-color="#f59a23" offset="1" />
    </linearGradient>
  </defs>
  <g transform="matrix(1 0 0 1 -114 -362 )">
    <path d="M 131.694040168523 362.5  C 131.694040168523 362.5  127.928763311951 364.034001682307  127.928763311951 364.034001682307  C 127.928763311951 364.034001682307  114.598736798757 384  114.598736798757 384  C 114.598736798757 384  127.928763311951 403.965998317693  127.928763311951 403.965998317693  C 127.928763311951 403.965998317693  131.694040168523 405.5  131.694040168523 405.5  C 131.694040168523 405.5  167.5 405.5  167.5 405.5  C 167.5 405.5  167.5 362.5  167.5 362.5  C 167.5 362.5  131.694040168523 362.5  131.694040168523 362.5  Z " fill-rule="nonzero" fill="url(#LinearGradient160)" stroke="none" />
    <path d="M 131.694040168523 362.5  C 131.694040168523 362.5  127.928763311951 364.034001682307  127.928763311951 364.034001682307  C 127.928763311951 364.034001682307  114.598736798757 384  114.598736798757 384  C 114.598736798757 384  127.928763311951 403.965998317693  127.928763311951 403.965998317693  C 127.928763311951 403.965998317693  131.694040168523 405.5  131.694040168523 405.5  C 131.694040168523 405.5  167.5 405.5  167.5 405.5  C 167.5 405.5  167.5 362.5  167.5 362.5  C 167.5 362.5  131.694040168523 362.5  131.694040168523 362.5  Z " stroke-width="1" stroke="#d7d7d7" fill="none" />
  </g>
</svg>