<?xml version="1.0" encoding="utf-8"?>
<svg version="1.1" xmlns:xlink="http://www.w3.org/1999/xlink" width="44px" height="44px" xmlns="http://www.w3.org/2000/svg">
  <defs>
    <linearGradient gradientUnits="userSpaceOnUse" x1="22" y1="0" x2="22" y2="44" id="LinearGradient167">
      <stop id="Stop168" stop-color="#ffff80" offset="0" />
      <stop id="Stop169" stop-color="#f59a23" offset="1" />
    </linearGradient>
    <mask fill="white" id="clip170">
      <path d="M 0.0826032540675281 27.1489361702128  L 0.853566958698379 0.617021276595779  L 42 0.617021276595779  L 42 27.2127659574469  L 21.5043804755945 43.7021276595746  L 0.0826032540675281 27.1489361702128  Z " fill-rule="evenodd" />
    </mask>
  </defs>
  <g transform="matrix(1 0 0 1 -870 -985 )">
    <path d="M 0.0826032540675281 27.1489361702128  L 0.853566958698379 0.617021276595779  L 42 0.617021276595779  L 42 27.2127659574469  L 21.5043804755945 43.7021276595746  L 0.0826032540675281 27.1489361702128  Z " fill-rule="nonzero" fill="url(#LinearGradient167)" stroke="none" transform="matrix(1 0 0 1 870 985 )" />
    <path d="M 0.0826032540675281 27.1489361702128  L 0.853566958698379 0.617021276595779  L 42 0.617021276595779  L 42 27.2127659574469  L 21.5043804755945 43.7021276595746  L 0.0826032540675281 27.1489361702128  Z " stroke-width="2" stroke="#d7d7d7" fill="none" transform="matrix(1 0 0 1 870 985 )" mask="url(#clip170)" />
  </g>
</svg>