<?xml version="1.0" encoding="utf-8"?>
<svg version="1.1" xmlns:xlink="http://www.w3.org/1999/xlink" width="54px" height="44px" xmlns="http://www.w3.org/2000/svg">
  <defs>
    <linearGradient gradientUnits="userSpaceOnUse" x1="216" y1="370" x2="216" y2="414" id="LinearGradient945">
      <stop id="Stop946" stop-color="#ffff80" offset="0" />
      <stop id="Stop947" stop-color="#f59a23" offset="1" />
    </linearGradient>
  </defs>
  <g transform="matrix(1 0 0 1 -189 -370 )">
    <path d="M 225.305959831477 370.5  C 225.305959831477 370.5  229.071236688049 372.034001682307  229.071236688049 372.034001682307  C 229.071236688049 372.034001682307  242.401263201243 392  242.401263201243 392  C 242.401263201243 392  229.071236688049 411.965998317693  229.071236688049 411.965998317693  C 229.071236688049 411.965998317693  225.305959831477 413.5  225.305959831477 413.5  C 225.305959831477 413.5  189.5 413.5  189.5 413.5  C 189.5 413.5  189.5 370.5  189.5 370.5  C 189.5 370.5  225.305959831477 370.5  225.305959831477 370.5  Z " fill-rule="nonzero" fill="url(#LinearGradient945)" stroke="none" />
    <path d="M 225.305959831477 370.5  C 225.305959831477 370.5  229.071236688049 372.034001682307  229.071236688049 372.034001682307  C 229.071236688049 372.034001682307  242.401263201243 392  242.401263201243 392  C 242.401263201243 392  229.071236688049 411.965998317693  229.071236688049 411.965998317693  C 229.071236688049 411.965998317693  225.305959831477 413.5  225.305959831477 413.5  C 225.305959831477 413.5  189.5 413.5  189.5 413.5  C 189.5 413.5  189.5 370.5  189.5 370.5  C 189.5 370.5  225.305959831477 370.5  225.305959831477 370.5  Z " stroke-width="1" stroke="#d7d7d7" fill="none" />
  </g>
</svg>