<?xml version="1.0" encoding="utf-8"?>
<svg version="1.1" xmlns:xlink="http://www.w3.org/1999/xlink" width="54px" height="44px" xmlns="http://www.w3.org/2000/svg">
  <defs>
    <linearGradient gradientUnits="userSpaceOnUse" x1="216" y1="450" x2="216" y2="494" id="LinearGradient175">
      <stop id="Stop176" stop-color="#ffff80" offset="0" />
      <stop id="Stop177" stop-color="#f59a23" offset="1" />
    </linearGradient>
  </defs>
  <g transform="matrix(1 0 0 1 -189 -450 )">
    <path d="M 225.305959831477 450.5  C 225.305959831477 450.5  229.071236688049 452.034001682307  229.071236688049 452.034001682307  C 229.071236688049 452.034001682307  242.401263201243 472  242.401263201243 472  C 242.401263201243 472  229.071236688049 491.965998317693  229.071236688049 491.965998317693  C 229.071236688049 491.965998317693  225.305959831477 493.5  225.305959831477 493.5  C 225.305959831477 493.5  189.5 493.5  189.5 493.5  C 189.5 493.5  189.5 450.5  189.5 450.5  C 189.5 450.5  225.305959831477 450.5  225.305959831477 450.5  Z " fill-rule="nonzero" fill="url(#LinearGradient175)" stroke="none" />
    <path d="M 225.305959831477 450.5  C 225.305959831477 450.5  229.071236688049 452.034001682307  229.071236688049 452.034001682307  C 229.071236688049 452.034001682307  242.401263201243 472  242.401263201243 472  C 242.401263201243 472  229.071236688049 491.965998317693  229.071236688049 491.965998317693  C 229.071236688049 491.965998317693  225.305959831477 493.5  225.305959831477 493.5  C 225.305959831477 493.5  189.5 493.5  189.5 493.5  C 189.5 493.5  189.5 450.5  189.5 450.5  C 189.5 450.5  225.305959831477 450.5  225.305959831477 450.5  Z " stroke-width="1" stroke="#d7d7d7" fill="none" />
  </g>
</svg>